<svg xmlns="http://www.w3.org/2000/svg" viewBox="0 0 48 48" width="48" height="48">
  <defs>
    <linearGradient id="sky" x1="0" y1="0" x2="0" y2="1">
      <stop offset="0%" stop-color="#F6D9C0"/><stop offset="100%" stop-color="#FBEEE0"/>
    </linearGradient>
    <linearGradient id="sun" x1="0" y1="0" x2="0" y2="1">
      <stop offset="0%" stop-color="#F4C063"/><stop offset="100%" stop-color="#E58F5E"/>
    </linearGradient>
  </defs>
  <rect x="2" y="2" width="44" height="44" rx="13" fill="url(#sky)"/>
  <clipPath id="c"><rect x="2" y="2" width="44" height="44" rx="13"/></clipPath>
  <g clip-path="url(#c)">
    <circle cx="24" cy="30" r="10" fill="url(#sun)"/>
    <g stroke="#E9A65E" stroke-width="1.6" stroke-linecap="round" opacity=".8">
      <line x1="24" y1="11" x2="24" y2="15"/><line x1="10" y1="17" x2="13" y2="20"/>
      <line x1="38" y1="17" x2="35" y2="20"/><line x1="5" y1="30" x2="9" y2="30"/><line x1="39" y1="30" x2="43" y2="30"/>
    </g>
    <path d="M2 32 Q12 29 24 32 T46 32 V46 H2 Z" fill="#8FB6B2"/>
    <path d="M2 37 Q13 34 24 37 T46 37 V46 H2 Z" fill="#5E93A0" opacity=".85"/>
  </g>
</svg>
